Coordinates
version=1
nRows=16
nColumns=38
inDegrees=no

Units are S.I. units (second, meters, Newtons, ...)
If the header above contains a line with 'inDegrees', this indicates whether rotational values are in degrees (yes) or radians (no).

endheader
time	pelvis_tilt	pelvis_list	pelvis_rotation	pelvis_tx	pelvis_ty	pelvis_tz	hip_flexion_r	hip_adduction_r	hip_rotation_r	knee_angle_r	ankle_angle_r	subtalar_angle_r	mtp_angle_r	hip_flexion_l	hip_adduction_l	hip_rotation_l	knee_angle_l	ankle_angle_l	subtalar_angle_l	mtp_angle_l	lumbar_extension	lumbar_bending	lumbar_rotation	arm_flex_r	arm_add_r	arm_rot_r	elbow_flex_r	pro_sup_r	wrist_flex_r	wrist_dev_r	arm_flex_l	arm_add_l	arm_rot_l	elbow_flex_l	pro_sup_l	wrist_flex_l	wrist_dev_l
42.67	-0.0139122	1.10905	1.58983	0.748136	-0.331856	0.914186	1.04129	-0.0277545	0.0854679	0.96931	-0.0703988	0	0	0.932683	-0.0664454	-0.00591051	0.966706	-0.0560317	0	0	-0.668758	-0.021701	0.0351961	0.476656	-0.50558	0.607956	0.789183	0.902725	0	0	0.543223	-0.245154	0.148091	0.56009	1.33308	0	0
42.68	-0.0098143	1.11854	1.58815	0.748042	-0.330163	0.918037	1.02215	-0.0286864	0.0814641	0.957308	-0.0740093	0	0	0.912699	-0.0668187	-0.00612256	0.949519	-0.0602681	0	0	-0.666238	-0.0206394	0.0349978	0.47257	-0.505553	0.615497	0.784771	0.895885	0	0	0.539932	-0.246059	0.157492	0.554598	1.32542	0	0
42.69	-0.0062004	1.12671	1.58589	0.748123	-0.328414	0.921772	1.00435	-0.0286594	0.0784639	0.944875	-0.0780103	0	0	0.893954	-0.0684744	-0.00846834	0.932002	-0.0649785	0	0	-0.662133	-0.0208245	0.0358209	0.467816	-0.505219	0.622928	0.779938	0.889099	0	0	0.536386	-0.247004	0.167361	0.549365	1.3177	0	0
42.7	-0.00316057	1.13381	1.58322	0.748385	-0.326613	0.925362	0.987699	-0.0277849	0.0764842	0.932104	-0.0820134	0	0	0.876403	-0.0713035	-0.0129701	0.914609	-0.0699802	0	0	-0.656659	-0.022283	0.0376277	0.462326	-0.504573	0.630089	0.774695	0.882153	0	0	0.532582	-0.248021	0.177804	0.544375	1.31032	0	0
42.71	-0.000388601	1.14102	1.58109	0.748571	-0.324812	0.9289	0.970871	-0.027587	0.0738855	0.919082	-0.0857425	0	0	0.858666	-0.0735461	-0.0169016	0.897214	-0.0750128	0	0	-0.651078	-0.0237662	0.0395379	0.456458	-0.50423	0.637154	0.769682	0.875187	0	0	0.52907	-0.24859	0.188357	0.539055	1.30277	0	0
42.72	0.00204268	1.14818	1.57963	0.748618	-0.322996	0.932361	0.954116	-0.0281994	0.0705097	0.906177	-0.0894449	0	0	0.840925	-0.0749842	-0.0201786	0.879497	-0.0801226	0	0	-0.645254	-0.0249678	0.0413346	0.450222	-0.504125	0.643677	0.764987	0.868754	0	0	0.525633	-0.248896	0.199602	0.533443	1.294	0	0
42.73	0.00443804	1.15576	1.57794	0.748655	-0.321124	0.935852	0.937	-0.028825	0.0667306	0.893675	-0.093361	0	0	0.822232	-0.0765521	-0.0240565	0.861199	-0.085166	0	0	-0.639729	-0.0261804	0.0436108	0.443479	-0.504031	0.649025	0.76048	0.863251	0	0	0.522437	-0.249154	0.212289	0.527641	1.28326	0	0
42.74	0.00669881	1.16342	1.57593	0.748734	-0.319206	0.939332	0.919869	-0.0292711	0.0628661	0.881321	-0.0970975	0	0	0.803261	-0.0784782	-0.0290288	0.842544	-0.0903057	0	0	-0.633958	-0.0274572	0.0465969	0.435858	-0.503873	0.652863	0.756176	0.859819	0	0	0.519445	-0.249413	0.22685	0.521493	1.26977	0	0
42.75	0.0087948	1.1711	1.57345	0.748892	-0.317257	0.942782	0.902763	-0.0291732	0.0597278	0.869011	-0.100791	0	0	0.784026	-0.0809059	-0.0348054	0.823537	-0.0955434	0	0	-0.627925	-0.0289368	0.0502038	0.42753	-0.503386	0.654995	0.752079	0.858834	0	0	0.516506	-0.250063	0.243585	0.515445	1.2536	0	0
42.76	0.0112178	1.17831	1.57054	0.749055	-0.315274	0.946112	0.886114	-0.0286507	0.0570439	0.856748	-0.104012	0	0	0.765364	-0.0833308	-0.0400691	0.804746	-0.100698	0	0	-0.621138	-0.0302387	0.054233	0.41796	-0.502481	0.654279	0.748223	0.860054	0	0	0.513515	-0.25102	0.262531	0.509539	1.23442	0	0
42.77	0.0141132	1.18316	1.56902	0.748886	-0.313221	0.949091	0.871994	-0.0298644	0.0525907	0.8452	-0.106061	0	0	0.749905	-0.083745	-0.0423394	0.786968	-0.105012	0	0	-0.611748	-0.0301503	0.0577922	0.405379	-0.501659	0.648396	0.745447	0.863421	0	0	0.510664	-0.251576	0.284835	0.503043	1.21236	0	0
42.78	0.0183368	1.18664	1.56671	0.748486	-0.311134	0.951967	0.859131	-0.0311754	0.0477048	0.833341	-0.108291	0	0	0.73616	-0.0836423	-0.0430692	0.76988	-0.108839	0	0	-0.602174	-0.0274739	0.0537362	0.402199	-0.498748	0.657391	0.739814	0.860045	0	0	0.496671	-0.251569	0.267105	0.507187	1.22787	0	0
42.79	0.0243056	1.20149	1.56141	0.748116	-0.308678	0.956266	0.831586	-0.0312654	0.042072	0.816455	-0.119048	0	0	0.707428	-0.085713	-0.0489505	0.746619	-0.119094	0	0	-0.604271	-0.0203309	0.0324955	0.435426	-0.4933	0.738868	0.71949	0.808077	0	0	0.468165	-0.261179	0.226929	0.525187	1.23764	0	0
42.8	0.0284124	1.20809	1.55784	0.748003	-0.306443	0.959495	0.814639	-0.0306441	0.039467	0.802956	-0.12279	0	0	0.689276	-0.0870892	-0.052947	0.727557	-0.125228	0	0	-0.597672	-0.0180199	0.0290547	0.43345	-0.489859	0.749396	0.713328	0.806069	0	0	0.456991	-0.264724	0.229887	0.527084	1.22579	0	0
42.81	0.0326534	1.21408	1.55407	0.747925	-0.304158	0.962656	0.798142	-0.0297468	0.0372219	0.789195	-0.126229	0	0	0.671575	-0.088632	-0.0573051	0.708287	-0.131566	0	0	-0.590746	-0.01551	0.025092	0.43102	-0.486156	0.758132	0.708108	0.805444	0	0	0.445554	-0.269046	0.234188	0.529167	1.21223	0	0
42.82	0.0369068	1.21909	1.55047	0.747819	-0.301856	0.965671	0.782736	-0.0289995	0.0348797	0.775697	-0.129008	0	0	0.655057	-0.0898906	-0.0612207	0.689019	-0.137625	0	0	-0.583062	-0.0128445	0.0215303	0.42679	-0.482967	0.763145	0.704626	0.805895	0	0	0.434873	-0.273394	0.241141	0.530635	1.19664	0	0
